<svg xmlns="http://www.w3.org/2000/svg" viewBox="0 0 64 64">
  <rect width="64" height="64" rx="13" fill="#d8bbb6"/>
  <g fill="none" stroke="#171614" stroke-width="4" stroke-linecap="round" stroke-linejoin="round">
    <path d="M15 35 11 19l10 9 6-15 6 15 10-12 2 17"/>
    <circle cx="11" cy="19" r="3"/>
    <circle cx="27" cy="13" r="3"/>
    <circle cx="43" cy="16" r="3"/>
    <ellipse cx="32" cy="39" rx="20" ry="11"/>
    <path d="M12 39c0 7 9 13 20 13s20-6 20-13"/>
    <ellipse cx="32" cy="39" rx="8" ry="4"/>
    <path d="M20 34h.1M25 31h.1M31 29h.1M38 31h.1M44 35h.1M22 43h.1M29 46h.1M38 45h.1"/>
  </g>
</svg>
